<mxfile host="app.diagrams.net" agent="Mozilla/5.0 (Windows NT 10.0; Win64; x64) AppleWebKit/537.36 (KHTML, like Gecko) Chrome/133.0.0.0 Safari/537.36" version="26.0.16">
  <diagram id="07fea595-8f29-1299-0266-81d95cde20df" name="Page-1">
    <mxGraphModel dx="4202" dy="2470" grid="0" gridSize="10" guides="1" tooltips="1" connect="1" arrows="1" fold="1" page="1" pageScale="1" pageWidth="1169" pageHeight="827" background="#FFFFFF" math="0" shadow="0">
      <root>
        <mxCell id="0" />
        <mxCell id="1" parent="0" />
        <mxCell id="ybbRhMfubBqCdi30oxEX-263" style="edgeStyle=orthogonalEdgeStyle;rounded=0;orthogonalLoop=1;jettySize=auto;html=1;exitX=0.5;exitY=1;exitDx=0;exitDy=0;entryX=0.5;entryY=0;entryDx=0;entryDy=0;" parent="1" source="ybbRhMfubBqCdi30oxEX-217" target="ybbRhMfubBqCdi30oxEX-218" edge="1">
          <mxGeometry relative="1" as="geometry" />
        </mxCell>
        <mxCell id="ybbRhMfubBqCdi30oxEX-264" style="edgeStyle=orthogonalEdgeStyle;rounded=0;orthogonalLoop=1;jettySize=auto;html=1;exitX=0.5;exitY=1;exitDx=0;exitDy=0;entryX=0.5;entryY=0;entryDx=0;entryDy=0;" parent="1" source="ybbRhMfubBqCdi30oxEX-217" target="ybbRhMfubBqCdi30oxEX-219" edge="1">
          <mxGeometry relative="1" as="geometry" />
        </mxCell>
        <mxCell id="ybbRhMfubBqCdi30oxEX-265" style="edgeStyle=orthogonalEdgeStyle;rounded=0;orthogonalLoop=1;jettySize=auto;html=1;exitX=0.5;exitY=1;exitDx=0;exitDy=0;" parent="1" source="ybbRhMfubBqCdi30oxEX-217" target="ybbRhMfubBqCdi30oxEX-220" edge="1">
          <mxGeometry relative="1" as="geometry" />
        </mxCell>
        <mxCell id="ybbRhMfubBqCdi30oxEX-266" style="edgeStyle=orthogonalEdgeStyle;rounded=0;orthogonalLoop=1;jettySize=auto;html=1;exitX=0.5;exitY=1;exitDx=0;exitDy=0;entryX=0.5;entryY=0;entryDx=0;entryDy=0;" parent="1" source="ybbRhMfubBqCdi30oxEX-217" target="ybbRhMfubBqCdi30oxEX-221" edge="1">
          <mxGeometry relative="1" as="geometry" />
        </mxCell>
        <mxCell id="ybbRhMfubBqCdi30oxEX-217" value="&lt;font style=&quot;font-size: 30px;&quot;&gt;Role&lt;/font&gt;" style="rounded=1;whiteSpace=wrap;html=1;" parent="1" vertex="1">
          <mxGeometry x="675" y="-270" width="260" height="80" as="geometry" />
        </mxCell>
        <mxCell id="ybbRhMfubBqCdi30oxEX-218" value="&lt;span style=&quot;font-size: 30px;&quot;&gt;Principle&lt;/span&gt;" style="rounded=1;whiteSpace=wrap;html=1;" parent="1" vertex="1">
          <mxGeometry x="-11" y="33" width="260" height="80" as="geometry" />
        </mxCell>
        <mxCell id="ybbRhMfubBqCdi30oxEX-219" value="&lt;span style=&quot;font-size: 30px;&quot;&gt;Teacher&lt;/span&gt;" style="rounded=1;whiteSpace=wrap;html=1;arcSize=21;" parent="1" vertex="1">
          <mxGeometry x="675" y="30" width="260" height="80" as="geometry" />
        </mxCell>
        <mxCell id="ybbRhMfubBqCdi30oxEX-220" value="&lt;span style=&quot;font-size: 30px;&quot;&gt;Parents&lt;/span&gt;" style="rounded=1;whiteSpace=wrap;html=1;" parent="1" vertex="1">
          <mxGeometry x="976" y="33" width="260" height="80" as="geometry" />
        </mxCell>
        <mxCell id="ybbRhMfubBqCdi30oxEX-221" value="&lt;span style=&quot;font-size: 30px;&quot;&gt;Students&lt;/span&gt;" style="rounded=1;whiteSpace=wrap;html=1;" parent="1" vertex="1">
          <mxGeometry x="1315" y="33" width="260" height="80" as="geometry" />
        </mxCell>
        <mxCell id="Rf6RHW0VL8sZyBqFRw_0-2" style="edgeStyle=orthogonalEdgeStyle;rounded=0;orthogonalLoop=1;jettySize=auto;html=1;exitX=0.5;exitY=1;exitDx=0;exitDy=0;" edge="1" parent="1" source="ybbRhMfubBqCdi30oxEX-228" target="Rf6RHW0VL8sZyBqFRw_0-1">
          <mxGeometry relative="1" as="geometry" />
        </mxCell>
        <mxCell id="ybbRhMfubBqCdi30oxEX-228" value="&lt;span style=&quot;font-size: 30px;&quot;&gt;Creating Users&lt;/span&gt;" style="rounded=1;whiteSpace=wrap;html=1;" parent="1" vertex="1">
          <mxGeometry x="-810" y="-400" width="260" height="80" as="geometry" />
        </mxCell>
        <mxCell id="ybbRhMfubBqCdi30oxEX-234" style="edgeStyle=orthogonalEdgeStyle;rounded=0;orthogonalLoop=1;jettySize=auto;html=1;exitX=0.5;exitY=1;exitDx=0;exitDy=0;entryX=0.5;entryY=0;entryDx=0;entryDy=0;" parent="1" source="ybbRhMfubBqCdi30oxEX-229" target="ybbRhMfubBqCdi30oxEX-232" edge="1">
          <mxGeometry relative="1" as="geometry" />
        </mxCell>
        <mxCell id="ybbRhMfubBqCdi30oxEX-229" value="&lt;span style=&quot;font-size: 30px;&quot;&gt;Admin 2&lt;/span&gt;" style="rounded=1;whiteSpace=wrap;html=1;" parent="1" vertex="1">
          <mxGeometry x="-810" y="-50" width="260" height="80" as="geometry" />
        </mxCell>
        <mxCell id="ybbRhMfubBqCdi30oxEX-237" style="edgeStyle=orthogonalEdgeStyle;rounded=0;orthogonalLoop=1;jettySize=auto;html=1;exitX=0.5;exitY=1;exitDx=0;exitDy=0;entryX=0.5;entryY=0;entryDx=0;entryDy=0;" parent="1" source="ybbRhMfubBqCdi30oxEX-232" target="ybbRhMfubBqCdi30oxEX-235" edge="1">
          <mxGeometry relative="1" as="geometry" />
        </mxCell>
        <mxCell id="ybbRhMfubBqCdi30oxEX-241" style="edgeStyle=orthogonalEdgeStyle;rounded=0;orthogonalLoop=1;jettySize=auto;html=1;exitX=0.5;exitY=1;exitDx=0;exitDy=0;entryX=0.5;entryY=0;entryDx=0;entryDy=0;" parent="1" source="ybbRhMfubBqCdi30oxEX-232" target="ybbRhMfubBqCdi30oxEX-236" edge="1">
          <mxGeometry relative="1" as="geometry" />
        </mxCell>
        <mxCell id="ybbRhMfubBqCdi30oxEX-232" value="&lt;span style=&quot;font-size: 30px;&quot;&gt;Teacher 3&lt;/span&gt;" style="rounded=1;whiteSpace=wrap;html=1;" parent="1" vertex="1">
          <mxGeometry x="-810" y="137" width="260" height="80" as="geometry" />
        </mxCell>
        <mxCell id="ybbRhMfubBqCdi30oxEX-235" value="&lt;span style=&quot;font-size: 30px;&quot;&gt;Parents 4&lt;/span&gt;" style="rounded=1;whiteSpace=wrap;html=1;" parent="1" vertex="1">
          <mxGeometry x="-1010" y="377" width="260" height="80" as="geometry" />
        </mxCell>
        <mxCell id="ybbRhMfubBqCdi30oxEX-236" value="&lt;span style=&quot;font-size: 30px;&quot;&gt;Students 5&lt;/span&gt;" style="rounded=1;whiteSpace=wrap;html=1;" parent="1" vertex="1">
          <mxGeometry x="-610" y="377" width="260" height="80" as="geometry" />
        </mxCell>
        <mxCell id="ybbRhMfubBqCdi30oxEX-246" style="edgeStyle=orthogonalEdgeStyle;rounded=0;orthogonalLoop=1;jettySize=auto;html=1;exitX=1;exitY=0.5;exitDx=0;exitDy=0;entryX=0;entryY=0.5;entryDx=0;entryDy=0;" parent="1" source="ybbRhMfubBqCdi30oxEX-243" target="ybbRhMfubBqCdi30oxEX-245" edge="1">
          <mxGeometry relative="1" as="geometry" />
        </mxCell>
        <mxCell id="ybbRhMfubBqCdi30oxEX-243" value="&lt;span style=&quot;font-size: 30px;&quot;&gt;Principle (super Admin)&lt;/span&gt;" style="rounded=1;whiteSpace=wrap;html=1;" parent="1" vertex="1">
          <mxGeometry x="-1140" y="1310" width="260" height="80" as="geometry" />
        </mxCell>
        <mxCell id="ybbRhMfubBqCdi30oxEX-251" style="edgeStyle=orthogonalEdgeStyle;rounded=0;orthogonalLoop=1;jettySize=auto;html=1;exitX=1;exitY=0.5;exitDx=0;exitDy=0;entryX=0;entryY=0.5;entryDx=0;entryDy=0;" parent="1" source="ybbRhMfubBqCdi30oxEX-245" target="ybbRhMfubBqCdi30oxEX-247" edge="1">
          <mxGeometry relative="1" as="geometry" />
        </mxCell>
        <mxCell id="ybbRhMfubBqCdi30oxEX-252" style="edgeStyle=orthogonalEdgeStyle;rounded=0;orthogonalLoop=1;jettySize=auto;html=1;exitX=1;exitY=0.5;exitDx=0;exitDy=0;entryX=0;entryY=0.5;entryDx=0;entryDy=0;" parent="1" source="ybbRhMfubBqCdi30oxEX-245" target="ybbRhMfubBqCdi30oxEX-248" edge="1">
          <mxGeometry relative="1" as="geometry" />
        </mxCell>
        <mxCell id="ybbRhMfubBqCdi30oxEX-245" value="&lt;span style=&quot;font-size: 30px;&quot;&gt;Teacher&lt;/span&gt;" style="rounded=1;whiteSpace=wrap;html=1;" parent="1" vertex="1">
          <mxGeometry x="-710" y="1310" width="260" height="80" as="geometry" />
        </mxCell>
        <mxCell id="ybbRhMfubBqCdi30oxEX-262" style="edgeStyle=orthogonalEdgeStyle;rounded=0;orthogonalLoop=1;jettySize=auto;html=1;exitX=0.5;exitY=1;exitDx=0;exitDy=0;entryX=0.5;entryY=0;entryDx=0;entryDy=0;" parent="1" source="ybbRhMfubBqCdi30oxEX-247" target="ybbRhMfubBqCdi30oxEX-248" edge="1">
          <mxGeometry relative="1" as="geometry" />
        </mxCell>
        <mxCell id="ybbRhMfubBqCdi30oxEX-247" value="&lt;span style=&quot;font-size: 30px;&quot;&gt;Parents&lt;/span&gt;" style="rounded=1;whiteSpace=wrap;html=1;" parent="1" vertex="1">
          <mxGeometry x="-290" y="1220" width="260" height="80" as="geometry" />
        </mxCell>
        <mxCell id="ybbRhMfubBqCdi30oxEX-248" value="&lt;span style=&quot;font-size: 30px;&quot;&gt;Students&lt;/span&gt;" style="rounded=1;whiteSpace=wrap;html=1;" parent="1" vertex="1">
          <mxGeometry x="-290" y="1410" width="260" height="80" as="geometry" />
        </mxCell>
        <mxCell id="ybbRhMfubBqCdi30oxEX-254" value="&lt;font style=&quot;font-size: 35px;&quot;&gt;View/Edit Access&lt;/font&gt;" style="text;html=1;align=center;verticalAlign=middle;whiteSpace=wrap;rounded=0;strokeWidth=1;fillColor=#f8cecc;strokeColor=default;" parent="1" vertex="1">
          <mxGeometry x="-792" y="940" width="424" height="100" as="geometry" />
        </mxCell>
        <mxCell id="Rf6RHW0VL8sZyBqFRw_0-3" value="" style="edgeStyle=orthogonalEdgeStyle;rounded=0;orthogonalLoop=1;jettySize=auto;html=1;" edge="1" parent="1" source="Rf6RHW0VL8sZyBqFRw_0-1" target="ybbRhMfubBqCdi30oxEX-229">
          <mxGeometry relative="1" as="geometry" />
        </mxCell>
        <mxCell id="Rf6RHW0VL8sZyBqFRw_0-1" value="&lt;span style=&quot;font-size: 30px;&quot;&gt;Principle 1&lt;/span&gt;" style="rounded=1;whiteSpace=wrap;html=1;" vertex="1" parent="1">
          <mxGeometry x="-810" y="-225" width="260" height="80" as="geometry" />
        </mxCell>
        <mxCell id="Rf6RHW0VL8sZyBqFRw_0-4" value="&lt;font style=&quot;font-size: 24px;&quot;&gt;1&lt;/font&gt;" style="text;html=1;align=center;verticalAlign=middle;whiteSpace=wrap;rounded=0;" vertex="1" parent="1">
          <mxGeometry x="79" y="131" width="92" height="37" as="geometry" />
        </mxCell>
        <mxCell id="Rf6RHW0VL8sZyBqFRw_0-6" value="&lt;font style=&quot;font-size: 25px;&quot;&gt;2&lt;/font&gt;" style="text;html=1;align=center;verticalAlign=middle;whiteSpace=wrap;rounded=0;" vertex="1" parent="1">
          <mxGeometry x="460" y="134.5" width="60" height="30" as="geometry" />
        </mxCell>
        <mxCell id="Rf6RHW0VL8sZyBqFRw_0-27" style="edgeStyle=orthogonalEdgeStyle;rounded=0;orthogonalLoop=1;jettySize=auto;html=1;exitX=0.5;exitY=0;exitDx=0;exitDy=0;" edge="1" parent="1" source="Rf6RHW0VL8sZyBqFRw_0-8" target="ybbRhMfubBqCdi30oxEX-221">
          <mxGeometry relative="1" as="geometry" />
        </mxCell>
        <mxCell id="Rf6RHW0VL8sZyBqFRw_0-8" value="&lt;span style=&quot;font-size: 25px;&quot;&gt;5&lt;/span&gt;" style="text;html=1;align=center;verticalAlign=middle;whiteSpace=wrap;rounded=0;" vertex="1" parent="1">
          <mxGeometry x="1415" y="134.5" width="60" height="30" as="geometry" />
        </mxCell>
        <mxCell id="Rf6RHW0VL8sZyBqFRw_0-25" style="edgeStyle=orthogonalEdgeStyle;rounded=0;orthogonalLoop=1;jettySize=auto;html=1;exitX=0.5;exitY=0;exitDx=0;exitDy=0;entryX=0.5;entryY=1;entryDx=0;entryDy=0;" edge="1" parent="1" source="Rf6RHW0VL8sZyBqFRw_0-10" target="ybbRhMfubBqCdi30oxEX-220">
          <mxGeometry relative="1" as="geometry" />
        </mxCell>
        <mxCell id="Rf6RHW0VL8sZyBqFRw_0-10" value="&lt;span style=&quot;font-size: 25px;&quot;&gt;4&lt;/span&gt;" style="text;html=1;align=center;verticalAlign=middle;whiteSpace=wrap;rounded=0;" vertex="1" parent="1">
          <mxGeometry x="1076" y="137" width="60" height="30" as="geometry" />
        </mxCell>
        <mxCell id="Rf6RHW0VL8sZyBqFRw_0-11" value="&lt;font style=&quot;font-size: 25px;&quot;&gt;3&lt;/font&gt;" style="text;html=1;align=center;verticalAlign=middle;whiteSpace=wrap;rounded=0;" vertex="1" parent="1">
          <mxGeometry x="791" y="134.5" width="60" height="30" as="geometry" />
        </mxCell>
        <mxCell id="Rf6RHW0VL8sZyBqFRw_0-13" value="&lt;span style=&quot;font-size: 30px;&quot;&gt;Admin&lt;/span&gt;" style="rounded=1;whiteSpace=wrap;html=1;arcSize=21;" vertex="1" parent="1">
          <mxGeometry x="341" y="33" width="260" height="80" as="geometry" />
        </mxCell>
        <mxCell id="Rf6RHW0VL8sZyBqFRw_0-17" style="edgeStyle=orthogonalEdgeStyle;rounded=0;orthogonalLoop=1;jettySize=auto;html=1;exitX=0.5;exitY=0;exitDx=0;exitDy=0;entryX=0.566;entryY=1.011;entryDx=0;entryDy=0;entryPerimeter=0;" edge="1" parent="1" source="Rf6RHW0VL8sZyBqFRw_0-6" target="Rf6RHW0VL8sZyBqFRw_0-13">
          <mxGeometry relative="1" as="geometry" />
        </mxCell>
        <mxCell id="Rf6RHW0VL8sZyBqFRw_0-18" style="edgeStyle=orthogonalEdgeStyle;rounded=0;orthogonalLoop=1;jettySize=auto;html=1;exitX=0.5;exitY=0;exitDx=0;exitDy=0;entryX=0.529;entryY=0.981;entryDx=0;entryDy=0;entryPerimeter=0;" edge="1" parent="1" source="Rf6RHW0VL8sZyBqFRw_0-4" target="ybbRhMfubBqCdi30oxEX-218">
          <mxGeometry relative="1" as="geometry" />
        </mxCell>
        <mxCell id="Rf6RHW0VL8sZyBqFRw_0-24" style="edgeStyle=orthogonalEdgeStyle;rounded=0;orthogonalLoop=1;jettySize=auto;html=1;exitX=0.5;exitY=0;exitDx=0;exitDy=0;entryX=0.562;entryY=1.004;entryDx=0;entryDy=0;entryPerimeter=0;" edge="1" parent="1" source="Rf6RHW0VL8sZyBqFRw_0-11" target="ybbRhMfubBqCdi30oxEX-219">
          <mxGeometry relative="1" as="geometry" />
        </mxCell>
      </root>
    </mxGraphModel>
  </diagram>
</mxfile>
